<svg xmlns="http://www.w3.org/2000/svg" version="1.1" xmlns:xlink="http://www.w3.org/1999/xlink" xmlns:svgjs="http://svgjs.dev/svgjs" width="1500" height="344" viewBox="0 0 1500 344"><g transform="matrix(1,0,0,1,-0.9090909090908781,-0.6349555017541206)"><svg viewBox="0 0 396 91" data-background-color="#ffffff" preserveAspectRatio="xMidYMid meet" height="344" width="1500" xmlns="http://www.w3.org/2000/svg" xmlns:xlink="http://www.w3.org/1999/xlink"><g id="tight-bounds" transform="matrix(1,0,0,1,0.2400000000000091,0.1679678798244879)"><svg viewBox="0 0 395.52 90.66397520565086" height="90.66397520565086" width="395.52"><g><svg viewBox="0 0 545.7154802683091 125.0928771551017" height="90.66397520565086" width="395.52"><g transform="matrix(1,0,0,1,150.1954802683091,35.96325867657891)"><svg viewBox="0 0 395.52 53.166359801943884" height="53.166359801943884" width="395.52"><g id="textblocktransform"><svg viewBox="0 0 395.52 53.166359801943884" height="53.166359801943884" width="395.52" id="textblock"><g><svg viewBox="0 0 395.52 53.166359801943884" height="53.166359801943884" width="395.52"><g transform="matrix(1,0,0,1,0,0)"><svg width="395.52" viewBox="0.35 -36.3 272.63 36.65" height="53.166359801943884" data-palette-color="#1293ff"><path d="M10.15 0.3L10.15 0.3Q6.8 0.3 4.63-0.85 2.45-2 1.4-3.8 0.35-5.6 0.35-7.5L0.35-7.5Q0.35-9.35 1.25-11.03 2.15-12.7 3.83-13.8 5.5-14.9 7.8-14.9L7.8-14.9Q7.75-14.45 7.75-14.08 7.75-13.7 7.75-13.7L7.75-13.7Q7.75-10.35 8.4-8.43 9.05-6.5 10.05-5.68 11.05-4.85 12.1-4.85L12.1-4.85Q13.7-4.85 14.95-6.13 16.2-7.4 16.2-9.1L16.2-9.1Q16.2-11 14.58-12.45 12.95-13.9 10.45-15.65L10.45-15.65Q9.05-16.7 7.48-18.03 5.9-19.35 4.8-21.18 3.7-23 3.7-25.5L3.7-25.5Q3.7-28.1 4.93-30.1 6.15-32.1 8.18-33.48 10.2-34.85 12.63-35.58 15.05-36.3 17.45-36.3L17.45-36.3Q20.4-36.3 22.3-35.35 24.2-34.4 25.15-32.9 26.1-31.4 26.1-29.8L26.1-29.8Q26.1-28.3 25.28-26.93 24.45-25.55 22.85-24.7 21.25-23.85 18.9-23.85L18.9-23.85Q19.05-24.55 19.1-25.13 19.15-25.7 19.15-26.15L19.15-26.15Q19.15-28.65 18.07-29.73 17-30.8 15.7-30.8L15.7-30.8Q14.45-30.8 13.3-29.88 12.15-28.95 12.15-26.9L12.15-26.9Q12.15-25.15 13.08-23.9 14-22.65 15.48-21.7 16.95-20.75 18.6-19.85L18.6-19.85Q20.3-18.95 21.88-17.88 23.45-16.8 24.5-15.35 25.55-13.9 25.55-11.7L25.55-11.7Q25.55-9.4 24.3-7.23 23.05-5.05 20.9-3.38 18.75-1.7 15.98-0.7 13.2 0.3 10.15 0.3ZM35.3 0.2L35.3 0.2Q33.05 0.2 31.52-1.65 30-3.5 30-6.6L30-6.6Q30-8.3 30.4-10.25 30.8-12.2 31.2-13.95L31.2-13.95Q31.55-15.25 31.77-16.38 32-17.5 32-18.2L32-18.2Q32-19.1 31.62-19.5 31.25-19.9 30.75-19.9L30.75-19.9Q30.25-19.9 29.75-19.58 29.25-19.25 28.95-18.6L28.95-18.6 28.55-18.75Q28.55-20.8 29.55-22.25 30.55-23.7 32.1-24.45 33.65-25.2 35.25-25.2L35.25-25.2Q36.55-25.2 37.75-24.68 38.95-24.15 39.72-23.05 40.5-21.95 40.5-20.3L40.5-20.3Q40.5-19.3 40.22-17.9 39.95-16.5 39.6-15L39.6-15Q39.25-13.45 38.92-11.88 38.6-10.3 38.6-9.1L38.6-9.1Q38.6-8 38.95-7.3 39.3-6.6 40-6.6L40-6.6Q41.3-6.6 42.92-9 44.55-11.4 45.55-15.45L45.55-15.45Q45.75-16.25 45.9-17.15 46.05-18.05 46.05-19L46.05-19Q46.05-19.75 45.95-20.53 45.85-21.3 45.65-22.1L45.65-22.1 45.65-22.45Q46.45-23.8 47.72-24.5 49-25.2 50.3-25.2L50.3-25.2Q52.05-25.2 53.45-24 54.85-22.8 54.85-20.5L54.85-20.5Q54.85-19.15 54.35-17.38 53.85-15.6 53.25-13.7L53.25-13.7Q52.65-11.85 52.15-10.05 51.65-8.25 51.65-6.85L51.65-6.85Q51.65-4.8 53.1-4.8L53.1-4.8Q53.5-4.8 54.07-5.03 54.65-5.25 55.15-5.95L55.15-5.95 55.5-5.85Q55.5-4.05 54.52-2.68 53.55-1.3 52.05-0.55 50.55 0.2 48.95 0.2L48.95 0.2Q46.9 0.2 45.27-1.3 43.65-2.8 43.65-6.2L43.65-6.2 43.65-6.3Q41.6-2.8 39.4-1.3 37.2 0.2 35.3 0.2ZM63.5 0.2L63.5 0.2Q61.7 0.2 60.27-1.28 58.85-2.75 58.85-5.35L58.85-5.35Q58.85-6.65 59.2-8.33 59.55-10 59.97-11.75 60.4-13.5 60.75-15.05 61.1-16.6 61.1-17.65L61.1-17.65Q61.1-18.5 60.7-19.03 60.3-19.55 59.65-19.55L59.65-19.55Q58.8-19.55 57.8-18.55L57.8-18.55 57.5-18.75Q57.45-19.55 57.85-20.65 58.25-21.75 59.15-22.78 60.05-23.8 61.5-24.5 62.95-25.2 64.95-25.2L64.95-25.2Q67.2-25.2 68.32-23.63 69.45-22.05 69.45-19.85L69.45-19.85Q69.45-19.6 69.45-19.33 69.45-19.05 69.4-18.8L69.4-18.8Q70.34-20.35 71.62-21.8 72.9-23.25 74.52-24.23 76.15-25.2 78.05-25.2L78.05-25.2Q80.5-25.2 81.45-23.63 82.4-22.05 82.4-20.05L82.4-20.05Q82.4-19.65 82.37-19.28 82.34-18.9 82.3-18.55L82.3-18.55Q83.34-20.1 84.62-21.63 85.9-23.15 87.55-24.18 89.2-25.2 91.34-25.2L91.34-25.2Q94-25.2 94.97-23.65 95.95-22.1 95.95-20L95.95-20Q95.95-18.15 95.5-15.78 95.05-13.4 94.59-11.1 94.15-8.8 94.15-7.2L94.15-7.2Q94.15-6.25 94.42-5.65 94.7-5.05 95.34-5.05L95.34-5.05Q95.9-5.05 96.37-5.38 96.84-5.7 97.05-6.15L97.05-6.15 97.45-6Q97.45-4.15 96.4-2.75 95.34-1.35 93.75-0.58 92.15 0.2 90.55 0.2L90.55 0.2Q88.59 0.2 87.12-1.1 85.65-2.4 85.65-5.4L85.65-5.4Q85.65-7.25 86.12-9.4 86.59-11.55 87.07-13.58 87.55-15.6 87.55-16.9L87.55-16.9Q87.55-18.75 86.25-18.75L86.25-18.75Q85.3-18.75 84.37-17.98 83.45-17.2 82.72-15.93 82-14.65 81.55-13.25 81.09-11.85 81.09-10.55L81.09-10.55Q81.09-9.35 81.37-7.93 81.65-6.5 81.65-5.2L81.65-5.2Q81.65-2.6 80.2-1.2 78.75 0.2 76.8 0.2L76.8 0.2Q75 0.2 73.57-1 72.15-2.2 72.15-4.6L72.15-4.6Q72.15-5.7 72.45-7.28 72.75-8.85 73.12-10.58 73.5-12.3 73.8-13.9 74.09-15.5 74.09-16.7L74.09-16.7Q74.09-17.65 73.82-18.2 73.55-18.75 72.75-18.75L72.75-18.75Q71.59-18.75 70.55-17.6 69.5-16.45 68.75-14.83 68-13.2 67.75-11.7L67.75-11.7Q67.7-11.35 67.67-11.15 67.65-10.95 67.65-10.95L67.65-10.95Q67.65-9.4 68-8.13 68.34-6.85 68.34-5.5L68.34-5.5Q68.34-3.05 66.87-1.43 65.4 0.2 63.5 0.2ZM105.24 0.2L105.24 0.2Q103.44 0.2 102.02-1.28 100.59-2.75 100.59-5.35L100.59-5.35Q100.59-6.65 100.94-8.33 101.29-10 101.72-11.75 102.14-13.5 102.49-15.05 102.84-16.6 102.84-17.65L102.84-17.65Q102.84-18.5 102.44-19.03 102.04-19.55 101.39-19.55L101.39-19.55Q100.54-19.55 99.54-18.55L99.54-18.55 99.24-18.75Q99.19-19.55 99.59-20.65 99.99-21.75 100.89-22.78 101.79-23.8 103.24-24.5 104.69-25.2 106.69-25.2L106.69-25.2Q108.94-25.2 110.07-23.63 111.19-22.05 111.19-19.85L111.19-19.85Q111.19-19.6 111.19-19.33 111.19-19.05 111.14-18.8L111.14-18.8Q112.09-20.35 113.37-21.8 114.64-23.25 116.27-24.23 117.89-25.2 119.79-25.2L119.79-25.2Q122.24-25.2 123.19-23.63 124.14-22.05 124.14-20.05L124.14-20.05Q124.14-19.65 124.12-19.28 124.09-18.9 124.04-18.55L124.04-18.55Q125.09-20.1 126.37-21.63 127.64-23.15 129.29-24.18 130.94-25.2 133.09-25.2L133.09-25.2Q135.74-25.2 136.72-23.65 137.69-22.1 137.69-20L137.69-20Q137.69-18.15 137.24-15.78 136.79-13.4 136.34-11.1 135.89-8.8 135.89-7.2L135.89-7.2Q135.89-6.25 136.17-5.65 136.44-5.05 137.09-5.05L137.09-5.05Q137.64-5.05 138.12-5.38 138.59-5.7 138.79-6.15L138.79-6.15 139.19-6Q139.19-4.15 138.14-2.75 137.09-1.35 135.49-0.58 133.89 0.2 132.29 0.2L132.29 0.2Q130.34 0.2 128.87-1.1 127.39-2.4 127.39-5.4L127.39-5.4Q127.39-7.25 127.87-9.4 128.34-11.55 128.82-13.58 129.29-15.6 129.29-16.9L129.29-16.9Q129.29-18.75 127.99-18.75L127.99-18.75Q127.04-18.75 126.12-17.98 125.19-17.2 124.47-15.93 123.74-14.65 123.29-13.25 122.84-11.85 122.84-10.55L122.84-10.55Q122.84-9.35 123.12-7.93 123.39-6.5 123.39-5.2L123.39-5.2Q123.39-2.6 121.94-1.2 120.49 0.2 118.54 0.2L118.54 0.2Q116.74 0.2 115.32-1 113.89-2.2 113.89-4.6L113.89-4.6Q113.89-5.7 114.19-7.28 114.49-8.85 114.87-10.58 115.24-12.3 115.54-13.9 115.84-15.5 115.84-16.7L115.84-16.7Q115.84-17.65 115.57-18.2 115.29-18.75 114.49-18.75L114.49-18.75Q113.34-18.75 112.29-17.6 111.24-16.45 110.49-14.83 109.74-13.2 109.49-11.7L109.49-11.7Q109.44-11.35 109.42-11.15 109.39-10.95 109.39-10.95L109.39-10.95Q109.39-9.4 109.74-8.13 110.09-6.85 110.09-5.5L110.09-5.5Q110.09-3.05 108.62-1.43 107.14 0.2 105.24 0.2ZM159.79 0.25L159.79 0.25Q158.04 0.25 156.74-0.9 155.44-2.05 155.44-4.65L155.44-4.65Q155.44-4.9 155.44-5.15 155.44-5.4 155.49-5.65L155.49-5.65Q153.99-2.65 152.12-1.23 150.24 0.2 148.34 0.2L148.34 0.2Q146.59 0.2 145.04-1.03 143.49-2.25 142.54-4.65 141.59-7.05 141.59-10.45L141.59-10.45Q141.59-13.95 142.56-16.7 143.54-19.45 145.14-21.35 146.74-23.25 148.64-24.23 150.54-25.2 152.34-25.2L152.34-25.2Q154.34-25.2 155.94-23.98 157.54-22.75 158.14-20.1L158.14-20.1Q158.29-20.95 158.37-21.65 158.44-22.35 158.44-22.6L158.44-22.6Q158.49-23.95 159.81-24.6 161.14-25.25 162.74-25.25L162.74-25.25Q164.14-25.25 165.39-24.7 166.64-24.15 167.09-22.85L167.09-22.85 167.19-22.55Q166.59-21.2 165.99-19.3 165.39-17.4 164.89-15.33 164.39-13.25 164.09-11.28 163.79-9.3 163.79-7.8L163.79-7.8Q163.79-6.15 164.14-5.53 164.49-4.9 164.99-4.9L164.99-4.9Q165.84-4.9 166.54-6.1L166.54-6.1 166.94-5.9Q166.94-4.2 165.84-2.8 164.74-1.4 163.09-0.58 161.44 0.25 159.79 0.25ZM151.64-6.1L151.64-6.1Q152.94-6.1 154.52-8.43 156.09-10.75 157.24-15.1L157.24-15.1Q157.34-15.55 157.44-15.98 157.54-16.4 157.59-16.8L157.59-16.8Q156.79-18.65 155.91-19.43 155.04-20.2 154.19-20.2L154.19-20.2Q152.94-20.2 151.87-18.88 150.79-17.55 150.12-15.55 149.44-13.55 149.44-11.55L149.44-11.55Q149.44-8.8 150.06-7.45 150.69-6.1 151.64-6.1ZM192.19 0.35L192.19 0.35Q190.39 0.35 188.11-0.3 185.84-0.95 183.36-1.73 180.89-2.5 178.44-2.85L178.44-2.85Q176.74-1.25 175.26-0.58 173.79 0.1 172.64 0.1L172.64 0.1Q171.19 0.1 170.19-0.75 169.19-1.6 168.69-2.93 168.19-4.25 168.19-5.65L168.19-5.65Q168.19-7.1 168.71-8.4 169.24-9.7 170.34-10.53 171.44-11.35 173.14-11.35L173.14-11.35Q173.49-11.35 173.89-11.3 174.29-11.25 174.74-11.15L174.74-11.15Q175.69-14.05 176.41-17.57 177.14-21.1 177.56-24.5 177.99-27.9 177.99-30.4L177.99-30.4Q177.99-31.4 177.89-31.83 177.79-32.25 177.54-32.7L177.54-32.7 177.49-32.85Q178.09-34.45 179.49-35.35 180.89-36.25 182.44-36.25L182.44-36.25Q184.14-36.25 185.24-35.02 186.34-33.8 186.34-30.95L186.34-30.95Q186.34-29.15 185.91-26.48 185.49-23.8 184.74-20.73 183.99-17.65 183.09-14.65 182.19-11.65 181.29-9.3L181.29-9.3Q183.49-8.8 185.71-8.15 187.94-7.5 190.09-7.5L190.09-7.5Q191.74-7.5 193.26-8.1 194.79-8.7 196.14-10.3L196.14-10.3Q197.14-9.65 197.61-8.45 198.09-7.25 198.09-5.9L198.09-5.9Q198.09-4.4 197.46-2.98 196.84-1.55 195.54-0.6 194.24 0.35 192.19 0.35ZM210.39-26.75L210.39-26.75Q208.39-26.75 207.11-27.98 205.84-29.2 205.84-31.05L205.84-31.05Q205.84-33.05 207.34-34.5 208.84-35.95 210.99-35.95L210.99-35.95Q212.99-35.95 214.26-34.7 215.54-33.45 215.54-31.6L215.54-31.6Q215.54-29.6 214.04-28.18 212.54-26.75 210.39-26.75ZM206.89 0.2L206.89 0.2Q204.94 0.2 203.39-1.18 201.84-2.55 201.84-5.6L201.84-5.6Q201.84-7.35 202.31-8.88 202.79-10.4 203.41-11.85 204.04-13.3 204.51-14.68 204.99-16.05 204.99-17.4L204.99-17.4Q204.99-18.6 204.59-19.13 204.19-19.65 203.64-19.65L203.64-19.65Q202.79-19.65 201.99-18.55L201.99-18.55 201.64-18.75Q201.84-20.75 202.91-22.18 203.99-23.6 205.56-24.4 207.14-25.2 208.69-25.2L208.69-25.2Q210.59-25.2 211.99-23.98 213.39-22.75 213.39-20L213.39-20Q213.39-18.35 212.91-16.53 212.44-14.7 211.81-12.9 211.19-11.1 210.71-9.55 210.24-8 210.24-6.9L210.24-6.9Q210.24-5.95 210.61-5.55 210.99-5.15 211.44-5.15L211.44-5.15Q211.89-5.15 212.31-5.43 212.74-5.7 212.94-6.05L212.94-6.05 213.29-5.95Q213.29-4.1 212.31-2.73 211.34-1.35 209.89-0.58 208.44 0.2 206.89 0.2ZM223.08 0.15L223.08 0.15Q221.23 0.15 219.73-1.33 218.23-2.8 218.23-5.45L218.23-5.45Q218.23-6.75 218.58-8.4 218.93-10.05 219.36-11.75 219.78-13.45 220.13-14.95 220.48-16.45 220.48-17.4L220.48-17.4Q220.48-18.4 220.08-18.98 219.68-19.55 219.03-19.55L219.03-19.55Q218.18-19.55 217.18-18.55L217.18-18.55 216.88-18.75Q216.83-19.55 217.23-20.65 217.63-21.75 218.46-22.78 219.28-23.8 220.58-24.5 221.88-25.2 223.68-25.2L223.68-25.2Q226.33-25.2 227.61-23.68 228.88-22.15 228.88-19.95L228.88-19.95Q228.88-19.15 228.73-18.4L228.73-18.4Q229.78-19.95 231.33-21.53 232.88-23.1 234.76-24.15 236.63-25.2 238.63-25.2L238.63-25.2Q240.98-25.2 241.83-23.7 242.68-22.2 242.68-19.95L242.68-19.95Q242.68-17.85 242.23-15.45 241.78-13.05 241.33-10.83 240.88-8.6 240.88-7.1L240.88-7.1Q240.88-5.1 242.03-5.1L242.03-5.1Q242.63-5.1 243.08-5.48 243.53-5.85 243.68-6.2L243.68-6.2 244.03-6.05Q244.03-4.2 243.01-2.8 241.98-1.4 240.43-0.63 238.88 0.15 237.28 0.15L237.28 0.15Q235.33 0.15 233.83-1.2 232.33-2.55 232.33-5.6L232.33-5.6Q232.33-7.4 232.81-9.5 233.28-11.6 233.73-13.55 234.18-15.5 234.18-16.75L234.18-16.75Q234.18-17.5 233.91-17.93 233.63-18.35 232.93-18.35L232.93-18.35Q231.78-18.35 230.41-17.3 229.03-16.25 228.06-14.5 227.08-12.75 227.08-10.65L227.08-10.65Q227.08-9.3 227.41-8.05 227.73-6.8 227.73-5.35L227.73-5.35Q227.73-2.65 226.33-1.25 224.93 0.15 223.08 0.15ZM265.18 0.25L265.18 0.25Q263.53 0.25 262.08-0.53 260.63-1.3 259.73-2.8 258.83-4.3 258.83-6.4L258.83-6.4Q258.83-8.55 259.88-11.25L259.88-11.25Q260.68-11.65 261.78-12.5 262.88-13.35 263.73-14.43 264.58-15.5 264.58-16.55L264.58-16.55Q264.58-17.5 263.86-18.05 263.13-18.6 262.08-18.6L262.08-18.6Q260.78-18.6 259.63-17.8 258.48-17 257.61-15.73 256.73-14.45 256.25-12.98 255.78-11.5 255.78-10.15L255.78-10.15Q255.78-8.85 256.11-7.73 256.43-6.6 256.43-5.15L256.43-5.15Q256.43-2.9 255.23-1.35 254.03 0.2 251.68 0.2L251.68 0.2Q249.53 0.2 248.23-1.25 246.93-2.7 246.93-5.2L246.93-5.2Q246.93-6.5 247.25-8.65 247.58-10.8 248.08-13.4 248.58-16 249.06-18.78 249.53-21.55 249.86-24.13 250.18-26.7 250.18-28.75L250.18-28.75Q250.18-29.85 250.06-30.78 249.93-31.7 249.53-32.25L249.53-32.25 249.53-32.55Q250.63-33.8 251.93-34.4 253.23-35 254.48-35L254.48-35Q256.38-35 257.73-33.65 259.08-32.3 259.08-29.65L259.08-29.65Q259.08-28.25 258.7-26.25 258.33-24.25 257.81-22.05 257.28-19.85 256.73-17.85L256.73-17.85Q257.83-19.45 259.23-21.15 260.63-22.85 262.38-24.03 264.13-25.2 266.33-25.2L266.33-25.2Q268.88-25.2 270.33-23.58 271.78-21.95 271.78-19.7L271.78-19.7Q271.78-17.45 270.16-14.9 268.53-12.35 264.73-10.6L264.73-10.6Q265.38-9.15 266.53-8 267.68-6.85 269.06-6.23 270.43-5.6 271.63-5.6L271.63-5.6Q272.23-5.6 272.68-5.8L272.68-5.8 272.98-5.5Q271.73-2.6 269.56-1.18 267.38 0.25 265.18 0.25Z" opacity="1" transform="matrix(1,0,0,1,0,0)" fill="#1293ff" class="wordmark-text-0" data-fill-palette-color="primary" id="text-0"></path></svg></g></svg></g></svg></g></svg></g><g><svg viewBox="0 0 125.0928771551017 125.0928771551017" height="125.0928771551017" width="125.0928771551017"><g><svg></svg></g><g id="icon-0"><svg viewBox="0 0 125.0928771551017 125.0928771551017" height="125.0928771551017" width="125.0928771551017"><g><path d="M0 62.546c0-34.543 28.003-62.546 62.546-62.546 34.543 0 62.546 28.003 62.547 62.546 0 34.543-28.003 62.546-62.547 62.547-34.543 0-62.546-28.003-62.546-62.547zM62.546 120.298c31.895 0 57.752-25.856 57.752-57.752 0-31.895-25.856-57.752-57.752-57.751-31.895 0-57.752 25.856-57.751 57.751 0 31.895 25.856 57.752 57.751 57.752z" data-fill-palette-color="accent" fill="#1293ff" stroke="transparent"></path><ellipse rx="61.92097419177534" ry="61.92097419177534" cx="62.54643857755085" cy="62.54643857755085" fill="#1293ff" stroke="transparent" stroke-width="0" fill-opacity="1" data-fill-palette-color="accent"></ellipse></g><g transform="matrix(1,0,0,1,30.355165228240864,30.35167351920493)"><svg viewBox="0 0 64.38254669861998 64.38953011669184" height="64.38953011669184" width="64.38254669861998"><g><svg xmlns="http://www.w3.org/2000/svg" xmlns:xlink="http://www.w3.org/1999/xlink" version="1.1" x="0" y="0" viewBox="13.48187499248256 13.473949539302708 73.04517298456165 73.05309601661365" enable-background="new 0 0 100 100" xml:space="preserve" height="64.38953011669184" width="64.38254669861998" class="icon-dxe-0" data-fill-palette-color="quaternary" id="dxe-0"><g fill="#ffffff" data-fill-palette-color="quaternary"><path d="M81.842 18.16A15.9 15.9 0 0 0 70.53 13.474C66.258 13.474 62.24 15.138 59.218 18.16L44.468 32.912A4 4 0 0 0 50.124 38.569L64.876 23.817C66.386 22.307 68.394 21.475 70.529 21.475S74.673 22.307 76.183 23.818C77.693 25.328 78.525 27.335 78.525 29.471S77.693 33.615 76.183 35.125L61.433 49.875A4 4 0 0 0 67.089 55.532L81.841 40.78A15.9 15.9 0 0 0 86.527 29.469 15.9 15.9 0 0 0 81.842 18.16" fill="#ffffff" data-fill-palette-color="quaternary"></path><path d="M49.875 61.433L35.122 76.185A7.94 7.94 0 0 1 29.469 78.527 7.95 7.95 0 0 1 23.815 76.185C20.699 73.068 20.699 67.995 23.815 64.876L38.567 50.125A4 4 0 0 0 38.567 44.468 4 4 0 0 0 32.912 44.468L18.158 59.22C11.923 65.457 11.923 75.605 18.159 81.841A15.9 15.9 0 0 0 29.469 86.527C33.742 86.527 37.759 84.863 40.78 81.841L55.532 67.089A4 4 0 1 0 49.875 61.433" fill="#ffffff" data-fill-palette-color="quaternary"></path><path d="M35.985 64.016C36.765 64.797 37.79 65.188 38.813 65.188S40.861 64.797 41.641 64.016L64.015 41.642A4 4 0 0 0 58.359 35.985L35.985 58.359A4 4 0 0 0 35.985 64.016" fill="#ffffff" data-fill-palette-color="quaternary"></path></g></svg></g></svg></g></svg></g></svg></g></svg></g><defs></defs></svg><rect width="395.52" height="90.66397520565086" fill="none" stroke="none" visibility="hidden"></rect></g></svg></g></svg>